# Blender v2.76 (sub 0) OBJ File: 'BOX.blend'
# www.blender.org
mtllib BOX.mtl
o Cube
v 1.000000 -1.000000 -1.000000
v 1.000000 -1.000000 1.000000
v -1.000000 -1.000000 1.000000
v -1.000000 -1.000000 -1.000000
v 1.000000 1.000000 -0.999999
v 0.999999 1.000000 1.000001
v -1.000000 1.000000 1.000000
v -1.000000 1.000000 -1.000000
v -1.000000 -1.000000 -0.747983
v -1.000000 1.000000 -0.750460
v -1.000000 0.771048 -1.000000
v -1.000000 0.750738 1.000000
v -1.000000 0.768511 -0.750174
v -0.752375 1.000000 1.000000
v -0.752374 -1.000000 1.000000
v 0.768089 1.000000 1.000000
v 0.768089 -1.000000 1.000000
v -0.752375 0.752374 1.000000
v 0.768089 0.752374 1.000000
v 0.999999 0.752374 1.000000
v -0.752374 -0.744517 1.000000
v 0.768089 -0.752374 1.000000
v -0.548542 -0.745571 1.000000
v 0.768089 0.564175 1.000000
v 0.552544 0.752374 1.000000
v -0.752374 -0.558278 1.000000
v 1.000000 -1.000000 0.747059
v 0.999999 1.000000 0.757121
v 1.000000 -1.000000 -0.762150
v 1.000000 1.000000 -0.762151
v 1.000000 0.747040 0.755848
v 1.000000 0.757120 -0.762151
v 1.000000 -0.746990 0.748332
v 1.000000 -0.742028 -0.762150
v 1.000000 0.550862 -0.762151
v 1.000000 -0.746341 0.550849
v 1.000000 -0.545691 0.749345
v 1.000000 0.755684 -0.545774
v -1.000000 -1.000000 0.762086
v -1.000000 0.753338 0.743941
v -1.000000 -0.759827 -0.748281
v -1.000000 -0.747928 0.759477
v -1.000000 -0.758295 -0.554050
v -1.000000 0.543223 0.746116
v -1.000000 0.755132 0.567315
v -1.000000 -0.553416 -0.748536
v 0.764160 1.000000 -1.000000
v 0.748446 -1.000000 -1.000000
v -0.756303 1.000000 -1.000000
v -0.775946 -1.000000 -1.000000
v 0.762216 0.752543 -1.000000
v -0.758698 0.756172 -1.000000
v -0.773436 -0.744425 -1.000000
v 0.750392 -0.752297 -1.000000
v 0.548039 -0.751252 -1.000000
v -0.760625 0.559942 -1.000000
v 0.751936 -0.555835 -1.000000
v -0.555980 0.755688 -1.000000
v 0.764630 1.000000 -0.760776
v -0.755816 1.000000 -0.751888
v 0.767613 1.000000 0.757531
v -0.752846 1.000000 0.760217
v -0.555913 1.000000 -0.753056
v 0.767194 1.000000 0.544116
v 0.555935 1.000000 0.757905
v -0.755439 1.000000 -0.559855
v 0.765622 -1.000000 0.748820
v -0.755200 -1.000000 0.760247
v 0.750799 -1.000000 -0.760384
v -0.772995 -1.000000 -0.749591
v -0.548038 -1.000000 -0.751185
v 0.763726 -1.000000 0.555782
v -0.770896 -1.000000 -0.571476
v 0.548208 -1.000000 0.750454
v 0.552544 0.752374 0.970000
v -0.752375 0.752374 0.970000
v -0.752374 -0.558278 0.970000
v -0.752374 -0.744517 0.970000
v 0.768089 0.564175 0.970001
v 0.768089 -0.752374 0.970000
v -0.548542 -0.745571 0.970000
v 0.768089 0.752374 0.970001
v -0.760625 0.559942 -0.970000
v -0.758698 0.756172 -0.970000
v -0.555980 0.755688 -0.970000
v 0.762216 0.752543 -0.970000
v 0.751936 -0.555835 -0.970000
v 0.750392 -0.752297 -0.970000
v 0.548039 -0.751252 -0.970000
v -0.773436 -0.744425 -0.970000
v 0.970000 0.755684 -0.545774
v 0.970000 0.747040 0.755848
v 0.970000 -0.545691 0.749345
v 0.970000 -0.746990 0.748332
v 0.970000 0.550862 -0.762151
v 0.970000 -0.742028 -0.762150
v 0.970000 -0.746341 0.550849
v 0.970000 0.757120 -0.762151
v -0.970000 0.755132 0.567315
v -0.970000 0.753338 0.743941
v -0.970000 -0.553416 -0.748536
v -0.970000 -0.759827 -0.748281
v -0.970000 0.543223 0.746116
v -0.970000 -0.747928 0.759477
v -0.970000 -0.758295 -0.554050
v -0.970000 0.768511 -0.750174
v -0.555913 0.970000 -0.753056
v -0.755816 0.970000 -0.751888
v -0.755439 0.970000 -0.559855
v 0.767194 0.970000 0.544116
v 0.767613 0.970000 0.757531
v 0.555935 0.970000 0.757905
v -0.752846 0.970000 0.760217
v 0.764630 0.970000 -0.760776
v 0.548208 -0.970000 0.750454
v 0.765622 -0.970000 0.748820
v 0.763726 -0.970000 0.555782
v 0.750799 -0.970000 -0.760384
v -0.770896 -0.970000 -0.571476
v -0.772995 -0.970000 -0.749591
v -0.548038 -0.970000 -0.751185
v -0.755200 -0.970000 0.760247
v 0.940900 0.755684 -0.545774
v 0.940900 0.747040 0.755848
v 0.940900 0.550862 -0.762151
v 0.940900 -0.742028 -0.762150
v 0.940900 -0.746341 0.550849
v 0.940900 -0.545691 0.749345
v -0.940900 0.543223 0.746116
v -0.940900 -0.747928 0.759477
v -0.940900 -0.758295 -0.554050
v -0.940900 0.768511 -0.750174
v -0.940900 0.755132 0.567315
v -0.940900 -0.553416 -0.748536
v 0.552544 0.752374 0.940900
v -0.752375 0.752374 0.940900
v 0.768089 0.564175 0.940901
v 0.768089 -0.752374 0.940900
v -0.548542 -0.745571 0.940900
v -0.752374 -0.558278 0.940900
v -0.555980 0.755688 -0.940900
v 0.762216 0.752543 -0.940900
v -0.773436 -0.744425 -0.940900
v 0.548039 -0.751252 -0.940900
v -0.760625 0.559942 -0.940900
v 0.751936 -0.555835 -0.940900
v 0.555935 0.940900 0.757905
v -0.752846 0.940900 0.760217
v 0.764630 0.940900 -0.760776
v -0.555913 0.940900 -0.753056
v 0.767194 0.940900 0.544116
v -0.755439 0.940900 -0.559855
v 0.763726 -0.940900 0.555782
v 0.750799 -0.940900 -0.760384
v -0.548038 -0.940900 -0.751185
v -0.755200 -0.940900 0.760247
v -0.770896 -0.940900 -0.571476
v 0.548208 -0.940900 0.750454
vt 0.000000 0.000000
vt 0.118925 0.000000
vt 0.119808 0.124600
vt 0.000000 0.125777
vt 0.117920 0.000000
vt 0.117685 0.119612
vt 0.000000 0.118924
vt 1.000000 0.000000
vt 1.000000 0.118924
vt 0.878560 0.118924
vt 0.775431 0.118924
vt 0.128986 0.118925
vt 0.876187 0.000000
vt 0.876187 0.115955
vt 0.782088 0.115955
vt 0.123813 0.115955
vt 0.000000 0.115955
vt 0.875369 0.000000
vt 0.876669 0.128029
vt 0.771612 0.126942
vt 0.126036 0.120261
vt 0.000000 0.118957
vt 1.000000 0.125777
vt 0.876149 0.124804
vt 0.777918 0.124032
vt 0.123728 0.118892
vt 0.000000 0.117920
vt 0.000000 0.873991
vt 0.120086 0.874140
vt 0.223292 0.874268
vt 0.884256 0.875087
vt 0.885524 1.000000
vt 0.000000 1.000000
vt 0.877566 0.216342
vt 1.000000 0.875230
vt 1.000000 1.000000
vt 0.000000 0.876187
vt 0.127741 0.876187
vt 0.220861 0.876187
vt 0.876187 0.876187
vt 0.875369 1.000000
vt 0.127215 0.774271
vt 0.876187 0.223728
vt 1.000000 0.115955
vt 1.000000 0.876187
vt 0.220029 0.880313
vt 0.121914 0.879349
vt 0.000000 0.873530
vt 0.126505 0.874166
vt 0.227155 0.874672
vt 0.873520 0.877924
vt 1.000000 0.878560
vt 0.876187 1.000000
vt 0.126830 0.775424
vt 0.877842 0.227113
vt 0.120853 0.777025
vt 0.122156 0.777990
vt 0.000000 0.878151
vt 0.872213 0.886718
vt 1.000000 0.887973
vt 0.114476 1.000000
vt 0.875626 0.225981
vt 0.115955 1.000000
vt 0.116193 0.878765
vt 0.222032 0.878952
vt 0.876423 0.880109
vt 0.116403 0.772058
vt 0.000000 0.878560
vt 1.000000 0.124770
vt 0.877908 0.124056
vt 0.878151 0.000000
vt 0.777957 0.123472
vt 0.877719 0.220073
vt 0.875227 0.225896
vt 0.880123 0.877600
vt 0.214262 0.885448
vt 0.125205 0.886498
vt 0.124408 0.774019
vt 0.000000 0.887973
vt 0.126009 1.000000
vt 0.874410 0.117189
vt 0.881043 1.000000
vt 0.873530 0.000000
vt 0.777891 0.118137
vn 0.000000 -1.000000 0.000000
vn 0.000000 1.000000 0.000000
vn 1.000000 -0.000000 0.000000
vn 0.000000 -0.000000 1.000000
vn -1.000000 -0.000000 -0.000000
vn 0.000000 0.000000 -1.000000
vn 0.005200 1.000000 0.000000
vn 1.000000 -0.009800 0.000000
vn 0.000000 -1.000000 -0.006600
vn 0.000000 0.005000 -1.000000
vn 0.000000 -0.010300 -0.999900
vn 0.000000 0.001200 1.000000
vn 0.000000 1.000000 0.003300
vn 0.005800 0.000000 1.000000
vn -0.007500 0.000000 -1.000000
vn 0.999900 0.000000 -0.011800
vn -0.001800 0.000000 -1.000000
vn -1.000000 0.000000 0.009800
vn -1.000000 0.007900 0.000000
vn 0.705300 -0.709000 0.000000
vn -0.002400 -1.000000 0.000000
vn 0.000000 0.709100 -0.705100
vn 0.000000 1.000000 -0.007900
vn 0.000000 -0.999900 -0.010200
vn 0.007100 0.000000 1.000000
vn -1.000000 0.000000 0.002000
vn 1.000000 0.000000 -0.002000
vn 0.000000 0.705400 0.708800
vn 0.000000 -0.706700 0.707500
vn 0.000000 -0.711400 -0.702800
vn 0.708100 0.706100 0.000000
vn -0.708700 0.705600 0.000000
vn -0.707800 -0.706400 0.000000
vn -0.707900 0.000000 0.706300
vn -0.708800 0.000000 0.705400
vn 0.705800 0.000000 -0.708400
vn 0.700100 0.000000 -0.714100
usemtl Material
s off
f 1/1/1 29/2/1 69/3/1 48/4/1
f 5/1/2 47/5/2 59/6/2 30/7/2
f 1/1/3 5/8/3 30/9/3 32/10/3 35/11/3 34/12/3 29/7/3
f 2/1/4 20/13/4 19/14/4 24/15/4 22/16/4 17/17/4
f 3/1/5 12/18/5 40/19/5 44/20/5 42/21/5 39/22/5
f 5/1/6 1/8/6 48/23/6 54/24/6 57/25/6 51/26/6 47/27/6
f 9/28/5 41/29/5 46/30/5 13/31/5 11/32/5 4/33/5
f 13/31/5 45/34/5 40/19/5 12/18/5 7/8/5 10/35/5
f 11/32/5 13/31/5 10/35/5 8/36/5
f 15/37/4 21/38/4 26/39/4 18/40/4 12/41/4 3/33/4
f 17/17/4 22/16/4 23/42/4 21/38/4 15/37/4
f 18/40/4 25/43/4 19/14/4 16/44/4 14/45/4
f 19/14/4 20/13/4 6/8/4 16/44/4
f 12/41/4 18/40/4 14/45/4 7/36/4
f 23/42/7 22/16/7 80/16/7 81/42/7
f 56/46/8 52/47/8 84/47/8 83/46/8
f 22/16/5 24/15/5 79/15/5 80/16/5
f 27/48/3 33/49/3 37/50/3 31/51/3 28/52/3 6/36/3 20/53/3 2/33/3
f 29/7/3 34/12/3 36/54/3 33/49/3 27/48/3
f 31/51/3 38/55/3 32/10/3 30/9/3 28/52/3
f 38/55/9 31/51/9 92/51/9 91/55/9
f 31/51/10 37/50/10 93/50/10 92/51/10
f 42/21/11 44/20/11 103/20/11 104/21/11
f 39/22/5 42/21/5 43/56/5 41/29/5 9/28/5
f 46/30/12 41/29/12 102/29/12 101/30/12
f 13/31/12 46/30/12 101/30/12 106/31/12
f 36/54/13 34/12/13 96/12/13 97/54/13
f 47/27/6 51/26/6 58/57/6 52/47/6 49/58/6
f 49/58/6 52/47/6 56/46/6 53/59/6 50/60/6 4/36/6 11/61/6 8/33/6
f 53/59/8 56/46/8 83/46/8 90/59/8
f 53/59/6 55/62/6 54/24/6 48/23/6 50/60/6
f 26/39/3 21/38/3 78/38/3 77/39/3
f 18/40/3 26/39/3 77/39/3 76/40/3
f 16/63/2 61/64/2 65/65/2 62/66/2 14/53/2
f 30/7/2 59/6/2 64/67/2 61/64/2 28/68/2
f 10/69/2 60/70/2 49/71/2 8/8/2
f 49/71/2 60/70/2 63/72/2 59/6/2 47/5/2
f 14/53/2 62/66/2 66/73/2 60/70/2 10/69/2 7/36/2
f 28/68/2 61/64/2 16/63/2 6/33/2
f 59/6/14 63/72/14 107/72/14 114/6/14
f 74/74/15 68/75/15 122/75/15 115/74/15
f 73/76/16 70/77/16 120/77/16 119/76/16
f 48/4/1 69/3/1 71/78/1 70/77/1 50/79/1
f 50/79/1 70/77/1 9/80/1 4/33/1
f 68/75/1 74/74/1 67/81/1 17/44/1 15/45/1
f 39/82/1 68/75/1 15/45/1 3/36/1
f 67/81/1 27/83/1 2/8/1 17/44/1
f 62/66/17 65/65/17 112/65/17 113/66/17
f 9/80/1 70/77/1 73/76/1 68/75/1 39/82/1
f 69/3/1 29/2/1 27/83/1 67/81/1 72/84/1
f 68/75/16 73/76/16 119/76/16 122/75/16
f 69/3/18 72/84/18 117/84/18 118/3/18
f 78/38/4 81/42/4 79/15/4 82/14/4 75/43/4 77/39/4
f 75/43/1 76/40/1 136/40/1 135/43/1
f 86/26/19 87/25/19 146/25/19 142/26/19
f 84/47/6 85/57/6 87/25/6 88/24/6 89/62/6 83/46/6
f 81/42/7 80/16/7 138/16/7 139/42/7
f 79/15/20 81/42/20 139/42/20 137/15/20
f 51/26/19 57/25/19 87/25/19 86/26/19
f 58/57/21 51/26/21 86/26/21 85/57/21
f 21/38/7 23/42/7 81/42/7 78/38/7
f 52/47/21 58/57/21 85/57/21 84/47/21
f 24/15/5 19/14/5 82/14/5 79/15/5
f 25/43/1 18/40/1 76/40/1 75/43/1
f 57/25/19 54/24/19 88/24/19 87/25/19
f 54/24/7 55/62/7 89/62/7 88/24/7
f 19/14/1 25/43/1 75/43/1 82/14/1
f 55/62/7 53/59/7 90/59/7 89/62/7
f 94/49/3 97/54/3 95/11/3 98/10/3 91/55/3 93/50/3
f 96/12/4 95/11/4 125/11/4 126/12/4
f 101/30/22 99/34/22 133/34/22 134/30/22
f 102/29/5 105/56/5 103/20/5 100/19/5 99/34/5 101/30/5
f 104/21/11 103/20/11 129/20/11 130/21/11
f 97/54/13 96/12/13 126/12/13 127/54/13
f 41/29/23 43/56/23 105/56/23 102/29/23
f 32/10/9 38/55/9 91/55/9 98/10/9
f 37/50/10 33/49/10 94/49/10 93/50/10
f 43/56/23 42/21/23 104/21/23 105/56/23
f 34/12/4 35/11/4 95/11/4 96/12/4
f 44/20/11 40/19/11 100/19/11 103/20/11
f 33/49/13 36/54/13 97/54/13 94/49/13
f 40/19/24 45/34/24 99/34/24 100/19/24
f 35/11/4 32/10/4 98/10/4 95/11/4
f 45/34/24 13/31/24 106/31/24 99/34/24
f 118/3/18 117/84/18 153/84/18 154/3/18
f 114/6/14 107/72/14 150/72/14 149/6/14
f 109/73/2 112/65/2 111/64/2 110/67/2 107/72/2 108/70/2
f 120/77/1 121/78/1 117/84/1 116/81/1 115/74/1 119/76/1
f 121/78/25 118/3/25 154/3/25 155/78/25
f 122/75/16 119/76/16 157/76/16 156/75/16
f 70/77/25 71/78/25 121/78/25 120/77/25
f 63/72/14 60/70/14 108/70/14 107/72/14
f 64/67/26 59/6/26 114/6/26 110/67/26
f 60/70/27 66/73/27 109/73/27 108/70/27
f 67/81/15 74/74/15 115/74/15 116/81/15
f 65/65/17 61/64/17 111/64/17 112/65/17
f 71/78/25 69/3/25 118/3/25 121/78/25
f 61/64/26 64/67/26 110/67/26 111/64/26
f 66/73/27 62/66/27 113/66/27 109/73/27
f 72/84/18 67/81/18 116/81/18 117/84/18
f 125/11/3 127/54/3 126/12/3
f 128/50/3 123/55/3 124/51/3
f 129/20/5 131/56/5 130/21/5
f 134/30/5 133/34/5 132/31/5
f 93/50/28 91/55/28 123/55/28 128/50/28
f 103/20/29 105/56/29 131/56/29 129/20/29
f 95/11/30 97/54/30 127/54/30 125/11/30
f 99/34/24 106/31/24 132/31/24 133/34/24
f 91/55/9 92/51/9 124/51/9 123/55/9
f 92/51/10 93/50/10 128/50/10 124/51/10
f 105/56/23 104/21/23 130/21/23 131/56/23
f 106/31/12 101/30/12 134/30/12 132/31/12
f 137/15/4 139/42/4 138/16/4
f 140/39/4 135/43/4 136/40/4
f 145/46/6 144/62/6 143/59/6
f 146/25/6 141/57/6 142/26/6
f 89/62/7 90/59/7 143/59/7 144/62/7
f 85/57/21 86/26/21 142/26/21 141/57/21
f 76/40/3 77/39/3 140/39/3 136/40/3
f 90/59/8 83/46/8 145/46/8 143/59/8
f 87/25/31 85/57/31 141/57/31 146/25/31
f 80/16/5 79/15/5 137/15/5 138/16/5
f 77/39/32 75/43/32 135/43/32 140/39/32
f 83/46/33 89/62/33 144/62/33 145/46/33
f 148/66/2 147/65/2 152/73/2
f 150/72/2 151/67/2 149/6/2
f 153/84/1 155/78/1 154/3/1
f 157/76/1 158/74/1 156/75/1
f 115/74/15 122/75/15 156/75/15 158/74/15
f 109/73/27 113/66/27 148/66/27 152/73/27
f 110/67/26 114/6/26 149/6/26 151/67/26
f 119/76/34 115/74/34 158/74/34 157/76/34
f 112/65/35 109/73/35 152/73/35 147/65/35
f 117/84/36 121/78/36 155/78/36 153/84/36
f 107/72/37 110/67/37 151/67/37 150/72/37
f 113/66/17 112/65/17 147/65/17 148/66/17
